<mxfile host="app.diagrams.net" modified="2020-10-29T01:56:43.274Z" agent="5.0 (Windows NT 10.0; Win64; x64) AppleWebKit/537.36 (KHTML, like Gecko) Chrome/86.0.4240.111 Safari/537.36" etag="vQfPc2FyGCwJuYg_uw36" version="13.8.6" type="github">
  <diagram id="C5RBs43oDa-KdzZeNtuy" name="Page-1">
    <mxGraphModel dx="1171" dy="1901" grid="1" gridSize="10" guides="1" tooltips="1" connect="1" arrows="1" fold="1" page="1" pageScale="1" pageWidth="827" pageHeight="1169" math="0" shadow="0">
      <root>
        <mxCell id="WIyWlLk6GJQsqaUBKTNV-0" />
        <mxCell id="WIyWlLk6GJQsqaUBKTNV-1" parent="WIyWlLk6GJQsqaUBKTNV-0" />
        <mxCell id="bg-tm44ftiVSdSEZxXsd-82" style="edgeStyle=orthogonalEdgeStyle;rounded=0;orthogonalLoop=1;jettySize=auto;html=1;entryX=0.5;entryY=0;entryDx=0;entryDy=0;" edge="1" parent="WIyWlLk6GJQsqaUBKTNV-1" source="bg-tm44ftiVSdSEZxXsd-0" target="bg-tm44ftiVSdSEZxXsd-97">
          <mxGeometry relative="1" as="geometry">
            <mxPoint x="370" y="40" as="targetPoint" />
          </mxGeometry>
        </mxCell>
        <mxCell id="bg-tm44ftiVSdSEZxXsd-0" value="Início" style="ellipse;whiteSpace=wrap;html=1;" vertex="1" parent="WIyWlLk6GJQsqaUBKTNV-1">
          <mxGeometry x="305" y="-40" width="130" height="50" as="geometry" />
        </mxCell>
        <mxCell id="bg-tm44ftiVSdSEZxXsd-5" style="edgeStyle=orthogonalEdgeStyle;rounded=0;orthogonalLoop=1;jettySize=auto;html=1;exitX=0.5;exitY=1;exitDx=0;exitDy=0;" edge="1" parent="WIyWlLk6GJQsqaUBKTNV-1" source="bg-tm44ftiVSdSEZxXsd-1" target="bg-tm44ftiVSdSEZxXsd-3">
          <mxGeometry relative="1" as="geometry" />
        </mxCell>
        <mxCell id="bg-tm44ftiVSdSEZxXsd-1" value="i = 0 enquanto for i &amp;lt; 10" style="rhombus;whiteSpace=wrap;html=1;" vertex="1" parent="WIyWlLk6GJQsqaUBKTNV-1">
          <mxGeometry x="290" y="150" width="160" height="80" as="geometry" />
        </mxCell>
        <mxCell id="bg-tm44ftiVSdSEZxXsd-7" value="" style="edgeStyle=orthogonalEdgeStyle;rounded=0;orthogonalLoop=1;jettySize=auto;html=1;" edge="1" parent="WIyWlLk6GJQsqaUBKTNV-1" source="bg-tm44ftiVSdSEZxXsd-3" target="bg-tm44ftiVSdSEZxXsd-6">
          <mxGeometry relative="1" as="geometry" />
        </mxCell>
        <mxCell id="bg-tm44ftiVSdSEZxXsd-3" value="Leia: Nome do usário (i)" style="rounded=0;whiteSpace=wrap;html=1;" vertex="1" parent="WIyWlLk6GJQsqaUBKTNV-1">
          <mxGeometry x="310" y="260" width="120" height="60" as="geometry" />
        </mxCell>
        <mxCell id="bg-tm44ftiVSdSEZxXsd-9" value="" style="edgeStyle=orthogonalEdgeStyle;rounded=0;orthogonalLoop=1;jettySize=auto;html=1;" edge="1" parent="WIyWlLk6GJQsqaUBKTNV-1" source="bg-tm44ftiVSdSEZxXsd-6" target="bg-tm44ftiVSdSEZxXsd-8">
          <mxGeometry relative="1" as="geometry" />
        </mxCell>
        <mxCell id="bg-tm44ftiVSdSEZxXsd-6" value="Leia: Idade do usário (i)" style="rounded=0;whiteSpace=wrap;html=1;" vertex="1" parent="WIyWlLk6GJQsqaUBKTNV-1">
          <mxGeometry x="310" y="340" width="120" height="60" as="geometry" />
        </mxCell>
        <mxCell id="bg-tm44ftiVSdSEZxXsd-17" style="edgeStyle=orthogonalEdgeStyle;rounded=0;orthogonalLoop=1;jettySize=auto;html=1;entryX=0.5;entryY=0;entryDx=0;entryDy=0;" edge="1" parent="WIyWlLk6GJQsqaUBKTNV-1" source="bg-tm44ftiVSdSEZxXsd-8" target="bg-tm44ftiVSdSEZxXsd-10">
          <mxGeometry relative="1" as="geometry" />
        </mxCell>
        <mxCell id="bg-tm44ftiVSdSEZxXsd-8" value="Leia: cargo do usário (i)" style="rounded=0;whiteSpace=wrap;html=1;" vertex="1" parent="WIyWlLk6GJQsqaUBKTNV-1">
          <mxGeometry x="310" y="420" width="120" height="60" as="geometry" />
        </mxCell>
        <mxCell id="bg-tm44ftiVSdSEZxXsd-88" style="edgeStyle=orthogonalEdgeStyle;rounded=0;orthogonalLoop=1;jettySize=auto;html=1;exitX=0.5;exitY=1;exitDx=0;exitDy=0;entryX=0.5;entryY=0;entryDx=0;entryDy=0;" edge="1" parent="WIyWlLk6GJQsqaUBKTNV-1" source="bg-tm44ftiVSdSEZxXsd-10" target="bg-tm44ftiVSdSEZxXsd-68">
          <mxGeometry relative="1" as="geometry" />
        </mxCell>
        <mxCell id="bg-tm44ftiVSdSEZxXsd-10" value="Leia: Salário do usário (i)" style="rounded=0;whiteSpace=wrap;html=1;" vertex="1" parent="WIyWlLk6GJQsqaUBKTNV-1">
          <mxGeometry x="310" y="500" width="120" height="60" as="geometry" />
        </mxCell>
        <mxCell id="bg-tm44ftiVSdSEZxXsd-14" style="edgeStyle=orthogonalEdgeStyle;rounded=0;orthogonalLoop=1;jettySize=auto;html=1;entryX=1;entryY=0.5;entryDx=0;entryDy=0;" edge="1" parent="WIyWlLk6GJQsqaUBKTNV-1" source="bg-tm44ftiVSdSEZxXsd-12" target="bg-tm44ftiVSdSEZxXsd-1">
          <mxGeometry relative="1" as="geometry">
            <mxPoint x="460" y="180" as="targetPoint" />
          </mxGeometry>
        </mxCell>
        <mxCell id="bg-tm44ftiVSdSEZxXsd-12" value="Increemento + i" style="rounded=0;whiteSpace=wrap;html=1;" vertex="1" parent="WIyWlLk6GJQsqaUBKTNV-1">
          <mxGeometry x="520" y="160" width="120" height="60" as="geometry" />
        </mxCell>
        <mxCell id="bg-tm44ftiVSdSEZxXsd-23" value="" style="edgeStyle=orthogonalEdgeStyle;rounded=0;orthogonalLoop=1;jettySize=auto;html=1;" edge="1" parent="WIyWlLk6GJQsqaUBKTNV-1" source="bg-tm44ftiVSdSEZxXsd-18" target="bg-tm44ftiVSdSEZxXsd-22">
          <mxGeometry relative="1" as="geometry" />
        </mxCell>
        <mxCell id="bg-tm44ftiVSdSEZxXsd-103" style="edgeStyle=orthogonalEdgeStyle;rounded=0;orthogonalLoop=1;jettySize=auto;html=1;entryX=0;entryY=0.5;entryDx=0;entryDy=0;" edge="1" parent="WIyWlLk6GJQsqaUBKTNV-1" source="bg-tm44ftiVSdSEZxXsd-18" target="bg-tm44ftiVSdSEZxXsd-69">
          <mxGeometry relative="1" as="geometry">
            <Array as="points">
              <mxPoint x="200" y="725" />
              <mxPoint x="200" y="930" />
            </Array>
          </mxGeometry>
        </mxCell>
        <mxCell id="bg-tm44ftiVSdSEZxXsd-18" value="Se idade(i) &amp;lt; 30 e salário(i) &amp;gt; 3.000" style="rhombus;whiteSpace=wrap;html=1;rounded=0;" vertex="1" parent="WIyWlLk6GJQsqaUBKTNV-1">
          <mxGeometry x="250" y="670" width="240" height="110" as="geometry" />
        </mxCell>
        <mxCell id="bg-tm44ftiVSdSEZxXsd-83" style="edgeStyle=orthogonalEdgeStyle;rounded=0;orthogonalLoop=1;jettySize=auto;html=1;exitX=0.5;exitY=1;exitDx=0;exitDy=0;entryX=0.5;entryY=0;entryDx=0;entryDy=0;" edge="1" parent="WIyWlLk6GJQsqaUBKTNV-1" target="bg-tm44ftiVSdSEZxXsd-1">
          <mxGeometry relative="1" as="geometry">
            <mxPoint x="370" y="120" as="sourcePoint" />
          </mxGeometry>
        </mxCell>
        <mxCell id="bg-tm44ftiVSdSEZxXsd-106" style="edgeStyle=orthogonalEdgeStyle;rounded=0;orthogonalLoop=1;jettySize=auto;html=1;" edge="1" parent="WIyWlLk6GJQsqaUBKTNV-1" source="bg-tm44ftiVSdSEZxXsd-22" target="bg-tm44ftiVSdSEZxXsd-69">
          <mxGeometry relative="1" as="geometry" />
        </mxCell>
        <mxCell id="bg-tm44ftiVSdSEZxXsd-22" value="&quot;contador&quot; + 1" style="whiteSpace=wrap;html=1;rounded=0;" vertex="1" parent="WIyWlLk6GJQsqaUBKTNV-1">
          <mxGeometry x="310" y="820" width="120" height="60" as="geometry" />
        </mxCell>
        <mxCell id="bg-tm44ftiVSdSEZxXsd-29" style="edgeStyle=orthogonalEdgeStyle;rounded=0;orthogonalLoop=1;jettySize=auto;html=1;entryX=0;entryY=0.5;entryDx=0;entryDy=0;exitX=0.5;exitY=0;exitDx=0;exitDy=0;" edge="1" parent="WIyWlLk6GJQsqaUBKTNV-1" source="bg-tm44ftiVSdSEZxXsd-95" target="bg-tm44ftiVSdSEZxXsd-1">
          <mxGeometry relative="1" as="geometry">
            <mxPoint x="130" y="185.42852783203125" as="targetPoint" />
            <mxPoint x="130" y="615" as="sourcePoint" />
            <Array as="points">
              <mxPoint x="130" y="190" />
            </Array>
          </mxGeometry>
        </mxCell>
        <mxCell id="bg-tm44ftiVSdSEZxXsd-35" value="FALSE" style="text;html=1;strokeColor=none;fillColor=none;align=center;verticalAlign=middle;whiteSpace=wrap;rounded=0;" vertex="1" parent="WIyWlLk6GJQsqaUBKTNV-1">
          <mxGeometry x="133" y="390" width="40" height="20" as="geometry" />
        </mxCell>
        <mxCell id="bg-tm44ftiVSdSEZxXsd-38" value="" style="edgeStyle=orthogonalEdgeStyle;rounded=0;orthogonalLoop=1;jettySize=auto;html=1;exitX=0.5;exitY=1;exitDx=0;exitDy=0;" edge="1" parent="WIyWlLk6GJQsqaUBKTNV-1" source="bg-tm44ftiVSdSEZxXsd-98" target="bg-tm44ftiVSdSEZxXsd-37">
          <mxGeometry relative="1" as="geometry">
            <mxPoint x="370" y="1060" as="sourcePoint" />
          </mxGeometry>
        </mxCell>
        <mxCell id="bg-tm44ftiVSdSEZxXsd-41" value="" style="edgeStyle=orthogonalEdgeStyle;rounded=0;orthogonalLoop=1;jettySize=auto;html=1;" edge="1" parent="WIyWlLk6GJQsqaUBKTNV-1" source="bg-tm44ftiVSdSEZxXsd-37" target="bg-tm44ftiVSdSEZxXsd-40">
          <mxGeometry relative="1" as="geometry" />
        </mxCell>
        <mxCell id="bg-tm44ftiVSdSEZxXsd-37" value="&lt;span&gt;i = 0 enquanto for i &amp;lt; 10&lt;/span&gt;" style="rhombus;whiteSpace=wrap;html=1;" vertex="1" parent="WIyWlLk6GJQsqaUBKTNV-1">
          <mxGeometry x="250" y="1090" width="240" height="80" as="geometry" />
        </mxCell>
        <mxCell id="bg-tm44ftiVSdSEZxXsd-43" value="" style="edgeStyle=orthogonalEdgeStyle;rounded=0;orthogonalLoop=1;jettySize=auto;html=1;" edge="1" parent="WIyWlLk6GJQsqaUBKTNV-1" source="bg-tm44ftiVSdSEZxXsd-40" target="bg-tm44ftiVSdSEZxXsd-42">
          <mxGeometry relative="1" as="geometry" />
        </mxCell>
        <mxCell id="bg-tm44ftiVSdSEZxXsd-54" style="edgeStyle=orthogonalEdgeStyle;rounded=0;orthogonalLoop=1;jettySize=auto;html=1;entryX=0.5;entryY=0;entryDx=0;entryDy=0;exitX=0;exitY=0.5;exitDx=0;exitDy=0;" edge="1" parent="WIyWlLk6GJQsqaUBKTNV-1" source="bg-tm44ftiVSdSEZxXsd-40" target="bg-tm44ftiVSdSEZxXsd-51">
          <mxGeometry relative="1" as="geometry">
            <mxPoint x="220" y="1630" as="targetPoint" />
            <Array as="points">
              <mxPoint x="220" y="1340" />
            </Array>
          </mxGeometry>
        </mxCell>
        <mxCell id="bg-tm44ftiVSdSEZxXsd-40" value="Se idade(i) &amp;lt; 30 e salário(i) &amp;gt; 3.000" style="rhombus;whiteSpace=wrap;html=1;" vertex="1" parent="WIyWlLk6GJQsqaUBKTNV-1">
          <mxGeometry x="250" y="1300" width="240" height="80" as="geometry" />
        </mxCell>
        <mxCell id="bg-tm44ftiVSdSEZxXsd-45" value="" style="edgeStyle=orthogonalEdgeStyle;rounded=0;orthogonalLoop=1;jettySize=auto;html=1;" edge="1" parent="WIyWlLk6GJQsqaUBKTNV-1" source="bg-tm44ftiVSdSEZxXsd-42" target="bg-tm44ftiVSdSEZxXsd-44">
          <mxGeometry relative="1" as="geometry" />
        </mxCell>
        <mxCell id="bg-tm44ftiVSdSEZxXsd-42" value="&lt;span&gt;Escreva: Nome do usário (i)&lt;/span&gt;" style="whiteSpace=wrap;html=1;" vertex="1" parent="WIyWlLk6GJQsqaUBKTNV-1">
          <mxGeometry x="310" y="1420" width="120" height="60" as="geometry" />
        </mxCell>
        <mxCell id="bg-tm44ftiVSdSEZxXsd-47" value="" style="edgeStyle=orthogonalEdgeStyle;rounded=0;orthogonalLoop=1;jettySize=auto;html=1;" edge="1" parent="WIyWlLk6GJQsqaUBKTNV-1" source="bg-tm44ftiVSdSEZxXsd-44" target="bg-tm44ftiVSdSEZxXsd-46">
          <mxGeometry relative="1" as="geometry" />
        </mxCell>
        <mxCell id="bg-tm44ftiVSdSEZxXsd-44" value="&lt;span&gt;Escreva: Idade do usário (i)&lt;/span&gt;" style="whiteSpace=wrap;html=1;" vertex="1" parent="WIyWlLk6GJQsqaUBKTNV-1">
          <mxGeometry x="310" y="1500" width="120" height="60" as="geometry" />
        </mxCell>
        <mxCell id="bg-tm44ftiVSdSEZxXsd-49" value="" style="edgeStyle=orthogonalEdgeStyle;rounded=0;orthogonalLoop=1;jettySize=auto;html=1;" edge="1" parent="WIyWlLk6GJQsqaUBKTNV-1" source="bg-tm44ftiVSdSEZxXsd-46" target="bg-tm44ftiVSdSEZxXsd-48">
          <mxGeometry relative="1" as="geometry" />
        </mxCell>
        <mxCell id="bg-tm44ftiVSdSEZxXsd-46" value="&lt;span&gt;Escreva: cargo do usário (i)&lt;/span&gt;" style="whiteSpace=wrap;html=1;" vertex="1" parent="WIyWlLk6GJQsqaUBKTNV-1">
          <mxGeometry x="310" y="1580" width="120" height="60" as="geometry" />
        </mxCell>
        <mxCell id="bg-tm44ftiVSdSEZxXsd-48" value="&lt;span&gt;Escreva: Salário do usário (i)&lt;/span&gt;" style="whiteSpace=wrap;html=1;" vertex="1" parent="WIyWlLk6GJQsqaUBKTNV-1">
          <mxGeometry x="310" y="1660" width="120" height="60" as="geometry" />
        </mxCell>
        <mxCell id="bg-tm44ftiVSdSEZxXsd-56" style="edgeStyle=orthogonalEdgeStyle;rounded=0;orthogonalLoop=1;jettySize=auto;html=1;" edge="1" parent="WIyWlLk6GJQsqaUBKTNV-1" target="bg-tm44ftiVSdSEZxXsd-55">
          <mxGeometry relative="1" as="geometry">
            <mxPoint x="310.0000222948911" y="1020.0344827586209" as="sourcePoint" />
          </mxGeometry>
        </mxCell>
        <mxCell id="bg-tm44ftiVSdSEZxXsd-50" value="Início condição" style="rounded=1;whiteSpace=wrap;html=1;" vertex="1" parent="WIyWlLk6GJQsqaUBKTNV-1">
          <mxGeometry x="310" y="1220" width="120" height="60" as="geometry" />
        </mxCell>
        <mxCell id="bg-tm44ftiVSdSEZxXsd-91" value="" style="edgeStyle=orthogonalEdgeStyle;rounded=0;orthogonalLoop=1;jettySize=auto;html=1;" edge="1" parent="WIyWlLk6GJQsqaUBKTNV-1" source="bg-tm44ftiVSdSEZxXsd-51">
          <mxGeometry relative="1" as="geometry">
            <mxPoint x="220" y="1890" as="targetPoint" />
          </mxGeometry>
        </mxCell>
        <mxCell id="bg-tm44ftiVSdSEZxXsd-51" value="Fim da condição" style="rounded=1;whiteSpace=wrap;html=1;" vertex="1" parent="WIyWlLk6GJQsqaUBKTNV-1">
          <mxGeometry x="160" y="1750" width="120" height="60" as="geometry" />
        </mxCell>
        <mxCell id="bg-tm44ftiVSdSEZxXsd-55" value="Fim do &quot;Para&quot;" style="rounded=1;whiteSpace=wrap;html=1;" vertex="1" parent="WIyWlLk6GJQsqaUBKTNV-1">
          <mxGeometry x="20" y="1390" width="120" height="60" as="geometry" />
        </mxCell>
        <mxCell id="bg-tm44ftiVSdSEZxXsd-57" value="FALSE" style="text;html=1;strokeColor=none;fillColor=none;align=center;verticalAlign=middle;whiteSpace=wrap;rounded=0;" vertex="1" parent="WIyWlLk6GJQsqaUBKTNV-1">
          <mxGeometry x="82" y="1250" width="40" height="20" as="geometry" />
        </mxCell>
        <mxCell id="bg-tm44ftiVSdSEZxXsd-58" value="FALSE" style="text;html=1;strokeColor=none;fillColor=none;align=center;verticalAlign=middle;whiteSpace=wrap;rounded=0;" vertex="1" parent="WIyWlLk6GJQsqaUBKTNV-1">
          <mxGeometry x="224" y="1520" width="40" height="20" as="geometry" />
        </mxCell>
        <mxCell id="bg-tm44ftiVSdSEZxXsd-60" style="edgeStyle=orthogonalEdgeStyle;rounded=0;orthogonalLoop=1;jettySize=auto;html=1;entryX=1;entryY=0.5;entryDx=0;entryDy=0;" edge="1" parent="WIyWlLk6GJQsqaUBKTNV-1" source="bg-tm44ftiVSdSEZxXsd-59" target="bg-tm44ftiVSdSEZxXsd-37">
          <mxGeometry relative="1" as="geometry" />
        </mxCell>
        <mxCell id="bg-tm44ftiVSdSEZxXsd-61" style="edgeStyle=orthogonalEdgeStyle;rounded=0;orthogonalLoop=1;jettySize=auto;html=1;entryX=1;entryY=0.5;entryDx=0;entryDy=0;" edge="1" parent="WIyWlLk6GJQsqaUBKTNV-1" source="bg-tm44ftiVSdSEZxXsd-59" target="bg-tm44ftiVSdSEZxXsd-51">
          <mxGeometry relative="1" as="geometry">
            <Array as="points">
              <mxPoint x="610" y="1780" />
            </Array>
          </mxGeometry>
        </mxCell>
        <mxCell id="bg-tm44ftiVSdSEZxXsd-59" value="Increemento + i" style="whiteSpace=wrap;html=1;rounded=0;" vertex="1" parent="WIyWlLk6GJQsqaUBKTNV-1">
          <mxGeometry x="550" y="1100" width="120" height="60" as="geometry" />
        </mxCell>
        <mxCell id="bg-tm44ftiVSdSEZxXsd-89" style="edgeStyle=orthogonalEdgeStyle;rounded=0;orthogonalLoop=1;jettySize=auto;html=1;exitX=0.5;exitY=1;exitDx=0;exitDy=0;" edge="1" parent="WIyWlLk6GJQsqaUBKTNV-1" source="bg-tm44ftiVSdSEZxXsd-68" target="bg-tm44ftiVSdSEZxXsd-18">
          <mxGeometry relative="1" as="geometry" />
        </mxCell>
        <mxCell id="bg-tm44ftiVSdSEZxXsd-68" value="Início da condição" style="rounded=1;whiteSpace=wrap;html=1;" vertex="1" parent="WIyWlLk6GJQsqaUBKTNV-1">
          <mxGeometry x="310" y="580" width="120" height="60" as="geometry" />
        </mxCell>
        <mxCell id="bg-tm44ftiVSdSEZxXsd-105" style="edgeStyle=orthogonalEdgeStyle;rounded=0;orthogonalLoop=1;jettySize=auto;html=1;exitX=1;exitY=0.5;exitDx=0;exitDy=0;entryX=0.5;entryY=1;entryDx=0;entryDy=0;" edge="1" parent="WIyWlLk6GJQsqaUBKTNV-1" source="bg-tm44ftiVSdSEZxXsd-69" target="bg-tm44ftiVSdSEZxXsd-12">
          <mxGeometry relative="1" as="geometry" />
        </mxCell>
        <mxCell id="bg-tm44ftiVSdSEZxXsd-69" value="FIm da condição" style="rounded=1;whiteSpace=wrap;html=1;" vertex="1" parent="WIyWlLk6GJQsqaUBKTNV-1">
          <mxGeometry x="310" y="900" width="120" height="60" as="geometry" />
        </mxCell>
        <mxCell id="bg-tm44ftiVSdSEZxXsd-72" value="VERDADEIRA" style="text;html=1;strokeColor=none;fillColor=none;align=center;verticalAlign=middle;whiteSpace=wrap;rounded=0;" vertex="1" parent="WIyWlLk6GJQsqaUBKTNV-1">
          <mxGeometry x="393" y="230" width="40" height="20" as="geometry" />
        </mxCell>
        <mxCell id="bg-tm44ftiVSdSEZxXsd-77" value="VERDADEIRA" style="text;html=1;strokeColor=none;fillColor=none;align=center;verticalAlign=middle;whiteSpace=wrap;rounded=0;" vertex="1" parent="WIyWlLk6GJQsqaUBKTNV-1">
          <mxGeometry x="394" y="1180" width="40" height="20" as="geometry" />
        </mxCell>
        <mxCell id="bg-tm44ftiVSdSEZxXsd-78" value="VERDADEIRA" style="text;html=1;strokeColor=none;fillColor=none;align=center;verticalAlign=middle;whiteSpace=wrap;rounded=0;" vertex="1" parent="WIyWlLk6GJQsqaUBKTNV-1">
          <mxGeometry x="392" y="1388" width="40" height="20" as="geometry" />
        </mxCell>
        <mxCell id="bg-tm44ftiVSdSEZxXsd-94" value="Escreva c&quot;ontador&quot;" style="rounded=0;whiteSpace=wrap;html=1;" vertex="1" parent="WIyWlLk6GJQsqaUBKTNV-1">
          <mxGeometry x="160" y="1890" width="120" height="60" as="geometry" />
        </mxCell>
        <mxCell id="bg-tm44ftiVSdSEZxXsd-95" value="&lt;span&gt;Fim do &quot;Para&quot;&lt;/span&gt;" style="rounded=1;whiteSpace=wrap;html=1;" vertex="1" parent="WIyWlLk6GJQsqaUBKTNV-1">
          <mxGeometry x="70" y="510" width="120" height="60" as="geometry" />
        </mxCell>
        <mxCell id="bg-tm44ftiVSdSEZxXsd-97" value="Início do &quot;Para&quot;" style="rounded=1;whiteSpace=wrap;html=1;" vertex="1" parent="WIyWlLk6GJQsqaUBKTNV-1">
          <mxGeometry x="310" y="60" width="120" height="60" as="geometry" />
        </mxCell>
        <mxCell id="bg-tm44ftiVSdSEZxXsd-99" style="edgeStyle=orthogonalEdgeStyle;rounded=0;orthogonalLoop=1;jettySize=auto;html=1;entryX=0.5;entryY=1;entryDx=0;entryDy=0;" edge="1" parent="WIyWlLk6GJQsqaUBKTNV-1" source="bg-tm44ftiVSdSEZxXsd-98" target="bg-tm44ftiVSdSEZxXsd-95">
          <mxGeometry relative="1" as="geometry" />
        </mxCell>
        <mxCell id="bg-tm44ftiVSdSEZxXsd-98" value="Início do &quot;Para&quot;" style="rounded=1;whiteSpace=wrap;html=1;" vertex="1" parent="WIyWlLk6GJQsqaUBKTNV-1">
          <mxGeometry x="310" y="990" width="120" height="60" as="geometry" />
        </mxCell>
        <mxCell id="bg-tm44ftiVSdSEZxXsd-101" value="VERDADEIRA" style="text;html=1;strokeColor=none;fillColor=none;align=center;verticalAlign=middle;whiteSpace=wrap;rounded=0;" vertex="1" parent="WIyWlLk6GJQsqaUBKTNV-1">
          <mxGeometry x="392" y="790" width="40" height="20" as="geometry" />
        </mxCell>
        <mxCell id="bg-tm44ftiVSdSEZxXsd-104" value="FALSE" style="text;html=1;strokeColor=none;fillColor=none;align=center;verticalAlign=middle;whiteSpace=wrap;rounded=0;" vertex="1" parent="WIyWlLk6GJQsqaUBKTNV-1">
          <mxGeometry x="210" y="820" width="40" height="20" as="geometry" />
        </mxCell>
      </root>
    </mxGraphModel>
  </diagram>
</mxfile>
